%TF.GenerationSoftware,KiCad,Pcbnew,8.0.1*%
%TF.CreationDate,2024-03-27T17:00:54-03:00*%
%TF.ProjectId,Pond_S6,506f6e64-5f53-4362-9e6b-696361645f70,rev?*%
%TF.SameCoordinates,Original*%
%TF.FileFunction,Copper,L1,Top*%
%TF.FilePolarity,Positive*%
%FSLAX46Y46*%
G04 Gerber Fmt 4.6, Leading zero omitted, Abs format (unit mm)*
G04 Created by KiCad (PCBNEW 8.0.1) date 2024-03-27 17:00:54*
%MOMM*%
%LPD*%
G01*
G04 APERTURE LIST*
%TA.AperFunction,ComponentPad*%
%ADD10C,1.400000*%
%TD*%
%TA.AperFunction,ComponentPad*%
%ADD11O,1.400000X1.400000*%
%TD*%
%TA.AperFunction,ComponentPad*%
%ADD12R,1.000000X1.000000*%
%TD*%
%TA.AperFunction,ComponentPad*%
%ADD13O,1.000000X1.000000*%
%TD*%
%TA.AperFunction,ComponentPad*%
%ADD14R,1.500000X1.050000*%
%TD*%
%TA.AperFunction,ComponentPad*%
%ADD15O,1.500000X1.050000*%
%TD*%
%TA.AperFunction,ComponentPad*%
%ADD16O,1.700000X1.700000*%
%TD*%
%TA.AperFunction,SMDPad,CuDef*%
%ADD17R,3.500000X1.700000*%
%TD*%
%TA.AperFunction,ComponentPad*%
%ADD18R,1.700000X1.700000*%
%TD*%
%TA.AperFunction,SMDPad,CuDef*%
%ADD19R,1.700000X3.500000*%
%TD*%
%TA.AperFunction,ComponentPad*%
%ADD20R,1.800000X1.800000*%
%TD*%
%TA.AperFunction,ComponentPad*%
%ADD21C,1.800000*%
%TD*%
%TA.AperFunction,Conductor*%
%ADD22C,1.200000*%
%TD*%
%TA.AperFunction,Conductor*%
%ADD23C,1.000000*%
%TD*%
%TA.AperFunction,Conductor*%
%ADD24C,0.200000*%
%TD*%
G04 APERTURE END LIST*
D10*
%TO.P,R2,1*%
%TO.N,GPIO_20*%
X153450000Y-82240000D03*
D11*
%TO.P,R2,2*%
%TO.N,Net-(Q1-B)*%
X153450000Y-77160000D03*
%TD*%
D10*
%TO.P,R1,1*%
%TO.N,VCC*%
X155700000Y-60970000D03*
D11*
%TO.P,R1,2*%
%TO.N,Net-(D1-A)*%
X155700000Y-66050000D03*
%TD*%
D12*
%TO.P,J1,1,Pin_1*%
%TO.N,VCC*%
X155960000Y-51800000D03*
D13*
%TO.P,J1,2,Pin_2*%
%TO.N,GND*%
X154690000Y-51800000D03*
%TD*%
D12*
%TO.P,J2,1,Pin_1*%
%TO.N,GND*%
X160200000Y-88660000D03*
D13*
%TO.P,J2,2,Pin_2*%
%TO.N,Triger*%
X160200000Y-87390000D03*
%TO.P,J2,3,Pin_3*%
%TO.N,Echo*%
X160200000Y-86120000D03*
%TO.P,J2,4,Pin_4*%
%TO.N,VCC2*%
X160200000Y-84850000D03*
%TD*%
D14*
%TO.P,Q1,1,C*%
%TO.N,LED*%
X160210000Y-75870000D03*
D15*
%TO.P,Q1,2,B*%
%TO.N,Net-(Q1-B)*%
X160210000Y-77140000D03*
%TO.P,Q1,3,E*%
%TO.N,VCC2*%
X160210000Y-78410000D03*
%TD*%
D16*
%TO.P,U1,1,GPIO0*%
%TO.N,unconnected-(U1-GPIO0-Pad1)*%
X127045000Y-46675000D03*
D17*
X126145000Y-46675000D03*
D16*
%TO.P,U1,2,GPIO1*%
%TO.N,unconnected-(U1-GPIO1-Pad2)*%
X127045000Y-49215000D03*
D17*
X126145000Y-49215000D03*
D18*
%TO.P,U1,3,GND*%
%TO.N,GND*%
X127045000Y-51755000D03*
D17*
X126145000Y-51755000D03*
D16*
%TO.P,U1,4,GPIO2*%
%TO.N,unconnected-(U1-GPIO2-Pad4)*%
X127045000Y-54295000D03*
D17*
X126145000Y-54295000D03*
D16*
%TO.P,U1,5,GPIO3*%
%TO.N,unconnected-(U1-GPIO3-Pad5)*%
X127045000Y-56835000D03*
D17*
X126145000Y-56835000D03*
D16*
%TO.P,U1,6,GPIO4*%
%TO.N,unconnected-(U1-GPIO4-Pad6)*%
X127045000Y-59375000D03*
D17*
X126145000Y-59375000D03*
D16*
%TO.P,U1,7,GPIO5*%
%TO.N,GND*%
X127045000Y-61915000D03*
D17*
X126145000Y-61915000D03*
D18*
%TO.P,U1,8,GND*%
%TO.N,unconnected-(U1-GND-Pad8)*%
X127045000Y-64455000D03*
D17*
X126145000Y-64455000D03*
D16*
%TO.P,U1,9,GPIO6*%
%TO.N,unconnected-(U1-GPIO6-Pad9)*%
X127045000Y-66995000D03*
D17*
X126145000Y-66995000D03*
D16*
%TO.P,U1,10,GPIO7*%
%TO.N,unconnected-(U1-GPIO7-Pad10)*%
X127045000Y-69535000D03*
D17*
X126145000Y-69535000D03*
D16*
%TO.P,U1,11,GPIO8*%
%TO.N,unconnected-(U1-GPIO8-Pad11)*%
X127045000Y-72075000D03*
D17*
X126145000Y-72075000D03*
D16*
%TO.P,U1,12,GPIO9*%
%TO.N,unconnected-(U1-GPIO9-Pad12)*%
X127045000Y-74615000D03*
D17*
X126145000Y-74615000D03*
D18*
%TO.P,U1,13,GND*%
%TO.N,GND*%
X127045000Y-77155000D03*
D17*
X126145000Y-77155000D03*
D16*
%TO.P,U1,14,GPIO10*%
%TO.N,unconnected-(U1-GPIO10-Pad14)*%
X127045000Y-79695000D03*
D17*
X126145000Y-79695000D03*
D16*
%TO.P,U1,15,GPIO11*%
%TO.N,unconnected-(U1-GPIO11-Pad15)*%
X127045000Y-82235000D03*
D17*
X126145000Y-82235000D03*
D16*
%TO.P,U1,16,GPIO12*%
%TO.N,unconnected-(U1-GPIO12-Pad16)*%
X127045000Y-84775000D03*
D17*
X126145000Y-84775000D03*
D16*
%TO.P,U1,17,GPIO13*%
%TO.N,unconnected-(U1-GPIO13-Pad17)*%
X127045000Y-87315000D03*
D17*
X126145000Y-87315000D03*
D18*
%TO.P,U1,18,GND*%
%TO.N,GND*%
X127045000Y-89855000D03*
D17*
X126145000Y-89855000D03*
D16*
%TO.P,U1,19,GPIO14*%
%TO.N,unconnected-(U1-GPIO14-Pad19)*%
X127045000Y-92395000D03*
D17*
X126145000Y-92395000D03*
D16*
%TO.P,U1,20,GPIO15*%
%TO.N,unconnected-(U1-GPIO15-Pad20)*%
X127045000Y-94935000D03*
D17*
X126145000Y-94935000D03*
D16*
%TO.P,U1,21,GPIO16*%
%TO.N,unconnected-(U1-GPIO16-Pad21)*%
X144825000Y-94935000D03*
D17*
X145725000Y-94935000D03*
D16*
%TO.P,U1,22,GPIO17*%
%TO.N,unconnected-(U1-GPIO17-Pad22)*%
X144825000Y-92395000D03*
D17*
X145725000Y-92395000D03*
D18*
%TO.P,U1,23,GND*%
%TO.N,GND*%
X144825000Y-89855000D03*
D17*
X145725000Y-89855000D03*
D16*
%TO.P,U1,24,GPIO18*%
%TO.N,Triger*%
X144825000Y-87315000D03*
D17*
X145725000Y-87315000D03*
D16*
%TO.P,U1,25,GPIO19*%
%TO.N,Echo*%
X144825000Y-84775000D03*
D17*
X145725000Y-84775000D03*
D16*
%TO.P,U1,26,GPIO20*%
%TO.N,GPIO_20*%
X144825000Y-82235000D03*
D17*
X145725000Y-82235000D03*
D16*
%TO.P,U1,27,GPIO21*%
%TO.N,unconnected-(U1-GPIO21-Pad27)*%
X144825000Y-79695000D03*
D17*
X145725000Y-79695000D03*
D18*
%TO.P,U1,28,GND*%
%TO.N,GND*%
X144825000Y-77155000D03*
D17*
X145725000Y-77155000D03*
D16*
%TO.P,U1,29,GPIO22*%
%TO.N,unconnected-(U1-GPIO22-Pad29)*%
X144825000Y-74615000D03*
D17*
X145725000Y-74615000D03*
D16*
%TO.P,U1,30,RUN*%
%TO.N,unconnected-(U1-RUN-Pad30)*%
X144825000Y-72075000D03*
D17*
X145725000Y-72075000D03*
D16*
%TO.P,U1,31,GPIO26_ADC0*%
%TO.N,unconnected-(U1-GPIO26_ADC0-Pad31)*%
X144825000Y-69535000D03*
D17*
X145725000Y-69535000D03*
D16*
%TO.P,U1,32,GPIO27_ADC1*%
%TO.N,unconnected-(U1-GPIO27_ADC1-Pad32)*%
X144825000Y-66995000D03*
D17*
X145725000Y-66995000D03*
D18*
%TO.P,U1,33,AGND*%
%TO.N,unconnected-(U1-AGND-Pad33)*%
X144825000Y-64455000D03*
D17*
X145725000Y-64455000D03*
D16*
%TO.P,U1,34,GPIO28_ADC2*%
%TO.N,unconnected-(U1-GPIO28_ADC2-Pad34)*%
X144825000Y-61915000D03*
D17*
X145725000Y-61915000D03*
D16*
%TO.P,U1,35,ADC_VREF*%
%TO.N,unconnected-(U1-ADC_VREF-Pad35)*%
X144825000Y-59375000D03*
D17*
X145725000Y-59375000D03*
D16*
%TO.P,U1,36,3V3*%
%TO.N,unconnected-(U1-3V3-Pad36)*%
X144825000Y-56835000D03*
D17*
X145725000Y-56835000D03*
D16*
%TO.P,U1,37,3V3_EN*%
%TO.N,unconnected-(U1-3V3_EN-Pad37)*%
X144825000Y-54295000D03*
D17*
X145725000Y-54295000D03*
D18*
%TO.P,U1,38,GND*%
%TO.N,GND*%
X144825000Y-51755000D03*
D17*
X145725000Y-51755000D03*
D16*
%TO.P,U1,39,VSYS*%
%TO.N,VCC*%
X144825000Y-49215000D03*
D17*
X145725000Y-49215000D03*
D16*
%TO.P,U1,40,VBUS*%
%TO.N,unconnected-(U1-VBUS-Pad40)*%
X144825000Y-46675000D03*
D17*
X145725000Y-46675000D03*
D16*
%TO.P,U1,41,SWCLK*%
%TO.N,unconnected-(U1-SWCLK-Pad41)*%
X133395000Y-94705000D03*
D19*
X133395000Y-95605000D03*
D18*
%TO.P,U1,42,GND*%
%TO.N,unconnected-(U1-GND-Pad42)*%
X135935000Y-94705000D03*
D19*
X135935000Y-95605000D03*
D16*
%TO.P,U1,43,SWDIO*%
%TO.N,unconnected-(U1-SWDIO-Pad43)*%
X138475000Y-94705000D03*
D19*
X138475000Y-95605000D03*
%TD*%
D20*
%TO.P,D1,1,K*%
%TO.N,LED*%
X155700000Y-71575000D03*
D21*
%TO.P,D1,2,A*%
%TO.N,Net-(D1-A)*%
X155700000Y-69035000D03*
%TD*%
D22*
%TO.N,LED*%
X155700000Y-71575000D02*
X155915000Y-71575000D01*
X155915000Y-71575000D02*
X160210000Y-75870000D01*
%TO.N,VCC2*%
X160210000Y-78410000D02*
X160210000Y-84840000D01*
X160210000Y-84840000D02*
X160200000Y-84850000D01*
%TO.N,VCC*%
X155700000Y-55290000D02*
X155960000Y-55030000D01*
X155960000Y-51800000D02*
X155960000Y-49530000D01*
X155700000Y-60970000D02*
X155700000Y-55290000D01*
X155960000Y-49530000D02*
X155645000Y-49215000D01*
X155645000Y-49215000D02*
X144825000Y-49215000D01*
X155960000Y-55030000D02*
X155960000Y-51800000D01*
%TO.N,Net-(D1-A)*%
X155700000Y-69035000D02*
X155700000Y-66050000D01*
D23*
%TO.N,Echo*%
X154775000Y-84775000D02*
X156120000Y-86120000D01*
X156120000Y-86120000D02*
X160200000Y-86120000D01*
X144825000Y-84775000D02*
X154775000Y-84775000D01*
%TO.N,Triger*%
X144825000Y-87315000D02*
X147815000Y-87315000D01*
X147890000Y-87390000D02*
X160200000Y-87390000D01*
D24*
X147815000Y-87315000D02*
X147890000Y-87390000D01*
%TO.N,Net-(Q1-B)*%
X160190000Y-77160000D02*
X160210000Y-77140000D01*
X153460000Y-77150000D02*
X153450000Y-77160000D01*
D22*
X153450000Y-77160000D02*
X160190000Y-77160000D01*
%TO.N,GPIO_20*%
X153450000Y-82240000D02*
X144830000Y-82240000D01*
D24*
X144830000Y-82240000D02*
X144825000Y-82235000D01*
%TD*%
%TA.AperFunction,Conductor*%
%TO.N,GND*%
G36*
X123850499Y-44519454D02*
G01*
X123931281Y-44573430D01*
X123985257Y-44654212D01*
X124004211Y-44749500D01*
X123985257Y-44844788D01*
X123931281Y-44925570D01*
X123870497Y-44970204D01*
X123841593Y-44985301D01*
X123841592Y-44985302D01*
X123683893Y-45113889D01*
X123683889Y-45113893D01*
X123555302Y-45271592D01*
X123555299Y-45271597D01*
X123461093Y-45451946D01*
X123461090Y-45451954D01*
X123405115Y-45647578D01*
X123405114Y-45647582D01*
X123394500Y-45766963D01*
X123394500Y-47583031D01*
X123394501Y-47583043D01*
X123405113Y-47702416D01*
X123454925Y-47876502D01*
X123462915Y-47973328D01*
X123454925Y-48013498D01*
X123405116Y-48187575D01*
X123405114Y-48187582D01*
X123394500Y-48306963D01*
X123394500Y-50123031D01*
X123394501Y-50123043D01*
X123405113Y-50242416D01*
X123455185Y-50417411D01*
X123463175Y-50514237D01*
X123455185Y-50554407D01*
X123405611Y-50727663D01*
X123405609Y-50727671D01*
X123395000Y-50846994D01*
X123395000Y-51254999D01*
X123395001Y-51255000D01*
X126940536Y-51255000D01*
X126848147Y-51279755D01*
X126731853Y-51346898D01*
X126636898Y-51441853D01*
X126569755Y-51558147D01*
X126535000Y-51687857D01*
X126535000Y-51822143D01*
X126569755Y-51951853D01*
X126636898Y-52068147D01*
X126731853Y-52163102D01*
X126848147Y-52230245D01*
X126940536Y-52255000D01*
X123395001Y-52255000D01*
X123395000Y-52255001D01*
X123395000Y-52663005D01*
X123405609Y-52782328D01*
X123405611Y-52782336D01*
X123455185Y-52955593D01*
X123463175Y-53052419D01*
X123455185Y-53092589D01*
X123405116Y-53267575D01*
X123405114Y-53267582D01*
X123394500Y-53386963D01*
X123394500Y-55203031D01*
X123394501Y-55203043D01*
X123405113Y-55322416D01*
X123454925Y-55496502D01*
X123462915Y-55593328D01*
X123454925Y-55633498D01*
X123405116Y-55807575D01*
X123405114Y-55807582D01*
X123394500Y-55926963D01*
X123394500Y-57743031D01*
X123394501Y-57743043D01*
X123405113Y-57862416D01*
X123454925Y-58036502D01*
X123462915Y-58133328D01*
X123454925Y-58173498D01*
X123405116Y-58347575D01*
X123405114Y-58347582D01*
X123394500Y-58466963D01*
X123394500Y-60283031D01*
X123394501Y-60283043D01*
X123405113Y-60402416D01*
X123455185Y-60577411D01*
X123463175Y-60674237D01*
X123455185Y-60714407D01*
X123405611Y-60887663D01*
X123405609Y-60887671D01*
X123395000Y-61006994D01*
X123395000Y-61414999D01*
X123395001Y-61415000D01*
X126940536Y-61415000D01*
X126848147Y-61439755D01*
X126731853Y-61506898D01*
X126636898Y-61601853D01*
X126569755Y-61718147D01*
X126535000Y-61847857D01*
X126535000Y-61982143D01*
X126569755Y-62111853D01*
X126636898Y-62228147D01*
X126731853Y-62323102D01*
X126848147Y-62390245D01*
X126940536Y-62415000D01*
X123395001Y-62415000D01*
X123395000Y-62415001D01*
X123395000Y-62823005D01*
X123405609Y-62942328D01*
X123405611Y-62942336D01*
X123455185Y-63115593D01*
X123463175Y-63212419D01*
X123455185Y-63252589D01*
X123405116Y-63427575D01*
X123405114Y-63427582D01*
X123394500Y-63546963D01*
X123394500Y-65363031D01*
X123394501Y-65363043D01*
X123405113Y-65482416D01*
X123454925Y-65656502D01*
X123462915Y-65753328D01*
X123454925Y-65793498D01*
X123405116Y-65967575D01*
X123405114Y-65967582D01*
X123394500Y-66086963D01*
X123394500Y-67903031D01*
X123394501Y-67903043D01*
X123405113Y-68022416D01*
X123454925Y-68196502D01*
X123462915Y-68293328D01*
X123454925Y-68333498D01*
X123405116Y-68507575D01*
X123405114Y-68507582D01*
X123394500Y-68626963D01*
X123394500Y-70443031D01*
X123394501Y-70443043D01*
X123405113Y-70562416D01*
X123454925Y-70736502D01*
X123462915Y-70833328D01*
X123454925Y-70873498D01*
X123405116Y-71047575D01*
X123405114Y-71047582D01*
X123394500Y-71166963D01*
X123394500Y-72983031D01*
X123394501Y-72983043D01*
X123405113Y-73102416D01*
X123454925Y-73276502D01*
X123462915Y-73373328D01*
X123454925Y-73413498D01*
X123405116Y-73587575D01*
X123405114Y-73587582D01*
X123394500Y-73706963D01*
X123394500Y-75523031D01*
X123394501Y-75523043D01*
X123405113Y-75642416D01*
X123455185Y-75817411D01*
X123463175Y-75914237D01*
X123455185Y-75954407D01*
X123405611Y-76127663D01*
X123405609Y-76127671D01*
X123395000Y-76246994D01*
X123395000Y-76654999D01*
X123395001Y-76655000D01*
X126940536Y-76655000D01*
X126848147Y-76679755D01*
X126731853Y-76746898D01*
X126636898Y-76841853D01*
X126569755Y-76958147D01*
X126535000Y-77087857D01*
X126535000Y-77222143D01*
X126569755Y-77351853D01*
X126636898Y-77468147D01*
X126731853Y-77563102D01*
X126848147Y-77630245D01*
X126940536Y-77655000D01*
X123395001Y-77655000D01*
X123395000Y-77655001D01*
X123395000Y-78063005D01*
X123405609Y-78182328D01*
X123405611Y-78182336D01*
X123455185Y-78355593D01*
X123463175Y-78452419D01*
X123455185Y-78492589D01*
X123405116Y-78667575D01*
X123405114Y-78667582D01*
X123394500Y-78786963D01*
X123394500Y-80603031D01*
X123394501Y-80603043D01*
X123405113Y-80722416D01*
X123454925Y-80896502D01*
X123462915Y-80993328D01*
X123454925Y-81033498D01*
X123405116Y-81207575D01*
X123405114Y-81207582D01*
X123394500Y-81326963D01*
X123394500Y-83143031D01*
X123394501Y-83143043D01*
X123405113Y-83262416D01*
X123454925Y-83436502D01*
X123462915Y-83533328D01*
X123454925Y-83573498D01*
X123405116Y-83747575D01*
X123405114Y-83747582D01*
X123394500Y-83866963D01*
X123394500Y-85683031D01*
X123394501Y-85683043D01*
X123405113Y-85802416D01*
X123454925Y-85976502D01*
X123462915Y-86073328D01*
X123454925Y-86113498D01*
X123405116Y-86287575D01*
X123405114Y-86287582D01*
X123394500Y-86406963D01*
X123394500Y-88223031D01*
X123394501Y-88223043D01*
X123405113Y-88342416D01*
X123455185Y-88517411D01*
X123463175Y-88614237D01*
X123455185Y-88654407D01*
X123405611Y-88827663D01*
X123405609Y-88827671D01*
X123395000Y-88946994D01*
X123395000Y-89354999D01*
X123395001Y-89355000D01*
X126940536Y-89355000D01*
X126848147Y-89379755D01*
X126731853Y-89446898D01*
X126636898Y-89541853D01*
X126569755Y-89658147D01*
X126535000Y-89787857D01*
X126535000Y-89922143D01*
X126569755Y-90051853D01*
X126636898Y-90168147D01*
X126731853Y-90263102D01*
X126848147Y-90330245D01*
X126940536Y-90355000D01*
X123395001Y-90355000D01*
X123395000Y-90355001D01*
X123395000Y-90763005D01*
X123405609Y-90882328D01*
X123405611Y-90882336D01*
X123455185Y-91055593D01*
X123463175Y-91152419D01*
X123455185Y-91192589D01*
X123405116Y-91367575D01*
X123405114Y-91367582D01*
X123394500Y-91486963D01*
X123394500Y-93303031D01*
X123394501Y-93303043D01*
X123405113Y-93422416D01*
X123454925Y-93596502D01*
X123462915Y-93693328D01*
X123454925Y-93733498D01*
X123405116Y-93907575D01*
X123405114Y-93907582D01*
X123394500Y-94026963D01*
X123394500Y-95843031D01*
X123394501Y-95843043D01*
X123405113Y-95962414D01*
X123405113Y-95962417D01*
X123405114Y-95962418D01*
X123461091Y-96158049D01*
X123555302Y-96338407D01*
X123683891Y-96496109D01*
X123841593Y-96624698D01*
X124021951Y-96718909D01*
X124217582Y-96774886D01*
X124336963Y-96785500D01*
X126970011Y-96785499D01*
X126987777Y-96786134D01*
X127044995Y-96790227D01*
X127045000Y-96790227D01*
X127045005Y-96790227D01*
X127102223Y-96786134D01*
X127119989Y-96785499D01*
X127953032Y-96785499D01*
X127953036Y-96785499D01*
X128072418Y-96774886D01*
X128268049Y-96718909D01*
X128448407Y-96624698D01*
X128606109Y-96496109D01*
X128734698Y-96338407D01*
X128828909Y-96158049D01*
X128884886Y-95962418D01*
X128895500Y-95843037D01*
X128895499Y-95009984D01*
X128896134Y-94992217D01*
X128900227Y-94935003D01*
X128900227Y-94934996D01*
X128896134Y-94877779D01*
X128895499Y-94860012D01*
X128895499Y-94026968D01*
X128895498Y-94026956D01*
X128884886Y-93907585D01*
X128884886Y-93907582D01*
X128835073Y-93733495D01*
X128827084Y-93636673D01*
X128835074Y-93596502D01*
X128884886Y-93422418D01*
X128895500Y-93303037D01*
X128895499Y-92469984D01*
X128896134Y-92452217D01*
X128900227Y-92395003D01*
X128900227Y-92394996D01*
X128896134Y-92337779D01*
X128895499Y-92320012D01*
X128895499Y-91486968D01*
X128895498Y-91486956D01*
X128884886Y-91367585D01*
X128884886Y-91367582D01*
X128834813Y-91192587D01*
X128826824Y-91095764D01*
X128834814Y-91055592D01*
X128884389Y-90882332D01*
X128884390Y-90882328D01*
X128894999Y-90763005D01*
X128895000Y-90763002D01*
X128895000Y-90355001D01*
X128894999Y-90355000D01*
X127149464Y-90355000D01*
X127241853Y-90330245D01*
X127358147Y-90263102D01*
X127453102Y-90168147D01*
X127520245Y-90051853D01*
X127555000Y-89922143D01*
X127555000Y-89787857D01*
X127520245Y-89658147D01*
X127453102Y-89541853D01*
X127358147Y-89446898D01*
X127241853Y-89379755D01*
X127149464Y-89355000D01*
X128894999Y-89355000D01*
X128895000Y-89354999D01*
X128895000Y-88946997D01*
X128894999Y-88946994D01*
X128884390Y-88827671D01*
X128884389Y-88827667D01*
X128834814Y-88654408D01*
X128826824Y-88557582D01*
X128834814Y-88517411D01*
X128884886Y-88342418D01*
X128895500Y-88223037D01*
X128895499Y-87389984D01*
X128896134Y-87372217D01*
X128900227Y-87315003D01*
X128900227Y-87314996D01*
X128896134Y-87257779D01*
X128895499Y-87240012D01*
X128895499Y-86406968D01*
X128895498Y-86406956D01*
X128886772Y-86308803D01*
X128884886Y-86287582D01*
X128835073Y-86113495D01*
X128827084Y-86016673D01*
X128835074Y-85976502D01*
X128884886Y-85802418D01*
X128895500Y-85683037D01*
X128895499Y-84849984D01*
X128896134Y-84832217D01*
X128900227Y-84775003D01*
X128900227Y-84774996D01*
X128896134Y-84717779D01*
X128895499Y-84700012D01*
X128895499Y-83866968D01*
X128895498Y-83866956D01*
X128884886Y-83747585D01*
X128884886Y-83747582D01*
X128835073Y-83573495D01*
X128827084Y-83476673D01*
X128835074Y-83436502D01*
X128884886Y-83262418D01*
X128895500Y-83143037D01*
X128895499Y-82309984D01*
X128896134Y-82292217D01*
X128900227Y-82235003D01*
X128900227Y-82234996D01*
X128896134Y-82177779D01*
X128895499Y-82160012D01*
X128895499Y-81326968D01*
X128895498Y-81326956D01*
X128891269Y-81279388D01*
X128884886Y-81207582D01*
X128835073Y-81033495D01*
X128827084Y-80936673D01*
X128835074Y-80896502D01*
X128884886Y-80722418D01*
X128895500Y-80603037D01*
X128895499Y-79769984D01*
X128896134Y-79752217D01*
X128900227Y-79695003D01*
X128900227Y-79694996D01*
X128896134Y-79637779D01*
X128895499Y-79620012D01*
X128895499Y-78786968D01*
X128895498Y-78786956D01*
X128894129Y-78771562D01*
X128884886Y-78667582D01*
X128834813Y-78492587D01*
X128826824Y-78395764D01*
X128834814Y-78355592D01*
X128884389Y-78182332D01*
X128884390Y-78182328D01*
X128894999Y-78063005D01*
X128895000Y-78063002D01*
X128895000Y-77655001D01*
X128894999Y-77655000D01*
X127149464Y-77655000D01*
X127241853Y-77630245D01*
X127358147Y-77563102D01*
X127453102Y-77468147D01*
X127520245Y-77351853D01*
X127555000Y-77222143D01*
X127555000Y-77087857D01*
X127520245Y-76958147D01*
X127453102Y-76841853D01*
X127358147Y-76746898D01*
X127241853Y-76679755D01*
X127149464Y-76655000D01*
X128894999Y-76655000D01*
X128895000Y-76654999D01*
X128895000Y-76246997D01*
X128894999Y-76246994D01*
X128884390Y-76127671D01*
X128884389Y-76127667D01*
X128834814Y-75954408D01*
X128826824Y-75857582D01*
X128834814Y-75817411D01*
X128884886Y-75642418D01*
X128895500Y-75523037D01*
X128895499Y-74689984D01*
X128896134Y-74672217D01*
X128900227Y-74615003D01*
X128900227Y-74614996D01*
X128896134Y-74557779D01*
X128895499Y-74540012D01*
X128895499Y-73706968D01*
X128895498Y-73706956D01*
X128884886Y-73587585D01*
X128884886Y-73587582D01*
X128835073Y-73413495D01*
X128827084Y-73316673D01*
X128835074Y-73276502D01*
X128884886Y-73102418D01*
X128895500Y-72983037D01*
X128895499Y-72149984D01*
X128896134Y-72132217D01*
X128900227Y-72075003D01*
X128900227Y-72074996D01*
X128896134Y-72017779D01*
X128895499Y-72000012D01*
X128895499Y-71166968D01*
X128895498Y-71166956D01*
X128884886Y-71047585D01*
X128884886Y-71047582D01*
X128835073Y-70873495D01*
X128827084Y-70776673D01*
X128835074Y-70736502D01*
X128884886Y-70562418D01*
X128895500Y-70443037D01*
X128895499Y-69609984D01*
X128896134Y-69592217D01*
X128900227Y-69535003D01*
X128900227Y-69534996D01*
X128896134Y-69477779D01*
X128895499Y-69460012D01*
X128895499Y-68626968D01*
X128895498Y-68626956D01*
X128884886Y-68507585D01*
X128884886Y-68507582D01*
X128835073Y-68333495D01*
X128827084Y-68236673D01*
X128835074Y-68196502D01*
X128884886Y-68022418D01*
X128895500Y-67903037D01*
X128895499Y-67069984D01*
X128896134Y-67052217D01*
X128900227Y-66995003D01*
X128900227Y-66994996D01*
X128896134Y-66937779D01*
X128895499Y-66920012D01*
X128895499Y-66086968D01*
X128895498Y-66086956D01*
X128884886Y-65967585D01*
X128884886Y-65967582D01*
X128835073Y-65793495D01*
X128827084Y-65696673D01*
X128835074Y-65656502D01*
X128884886Y-65482418D01*
X128895500Y-65363037D01*
X128895499Y-63546964D01*
X128884886Y-63427582D01*
X128834813Y-63252587D01*
X128826824Y-63155764D01*
X128834814Y-63115592D01*
X128884389Y-62942332D01*
X128884390Y-62942328D01*
X128894999Y-62823005D01*
X128895000Y-62823002D01*
X128895000Y-62415001D01*
X128894999Y-62415000D01*
X127149464Y-62415000D01*
X127241853Y-62390245D01*
X127358147Y-62323102D01*
X127453102Y-62228147D01*
X127520245Y-62111853D01*
X127555000Y-61982143D01*
X127555000Y-61847857D01*
X127520245Y-61718147D01*
X127453102Y-61601853D01*
X127358147Y-61506898D01*
X127241853Y-61439755D01*
X127149464Y-61415000D01*
X128894999Y-61415000D01*
X128895000Y-61414999D01*
X128895000Y-61006997D01*
X128894999Y-61006994D01*
X128884390Y-60887671D01*
X128884389Y-60887667D01*
X128834814Y-60714408D01*
X128826824Y-60617582D01*
X128834814Y-60577411D01*
X128884886Y-60402418D01*
X128895500Y-60283037D01*
X128895499Y-59449984D01*
X128896134Y-59432217D01*
X128900227Y-59375003D01*
X128900227Y-59374996D01*
X128896134Y-59317779D01*
X128895499Y-59300012D01*
X128895499Y-58466968D01*
X128895498Y-58466956D01*
X128884886Y-58347585D01*
X128884886Y-58347582D01*
X128835073Y-58173495D01*
X128827084Y-58076673D01*
X128835074Y-58036502D01*
X128884886Y-57862418D01*
X128895500Y-57743037D01*
X128895499Y-56909984D01*
X128896134Y-56892217D01*
X128900227Y-56835003D01*
X128900227Y-56834996D01*
X128896134Y-56777779D01*
X128895499Y-56760012D01*
X128895499Y-55926968D01*
X128895498Y-55926956D01*
X128893803Y-55907893D01*
X128884886Y-55807582D01*
X128835073Y-55633495D01*
X128827084Y-55536673D01*
X128835074Y-55496502D01*
X128884886Y-55322418D01*
X128895500Y-55203037D01*
X128895499Y-54369984D01*
X128896134Y-54352217D01*
X128900227Y-54295003D01*
X128900227Y-54294996D01*
X128896134Y-54237779D01*
X128895499Y-54220012D01*
X128895499Y-53386968D01*
X128895498Y-53386956D01*
X128884886Y-53267585D01*
X128884886Y-53267582D01*
X128834813Y-53092587D01*
X128826824Y-52995764D01*
X128834814Y-52955592D01*
X128884389Y-52782332D01*
X128884390Y-52782328D01*
X128894999Y-52663005D01*
X128895000Y-52663002D01*
X128895000Y-52255001D01*
X128894999Y-52255000D01*
X127149464Y-52255000D01*
X127241853Y-52230245D01*
X127358147Y-52163102D01*
X127453102Y-52068147D01*
X127520245Y-51951853D01*
X127555000Y-51822143D01*
X127555000Y-51687857D01*
X127520245Y-51558147D01*
X127453102Y-51441853D01*
X127358147Y-51346898D01*
X127241853Y-51279755D01*
X127149464Y-51255000D01*
X128894999Y-51255000D01*
X128895000Y-51254999D01*
X128895000Y-50846997D01*
X128894999Y-50846994D01*
X128884390Y-50727671D01*
X128884389Y-50727667D01*
X128834814Y-50554408D01*
X128826824Y-50457582D01*
X128834814Y-50417411D01*
X128884886Y-50242418D01*
X128895500Y-50123037D01*
X128895499Y-49289984D01*
X128896134Y-49272217D01*
X128900227Y-49215003D01*
X128900227Y-49214996D01*
X128896134Y-49157779D01*
X128895499Y-49140012D01*
X128895499Y-48306968D01*
X128895498Y-48306956D01*
X128893974Y-48289816D01*
X128884886Y-48187582D01*
X128835073Y-48013495D01*
X128827084Y-47916673D01*
X128835074Y-47876502D01*
X128884886Y-47702418D01*
X128895500Y-47583037D01*
X128895499Y-46749984D01*
X128896134Y-46732217D01*
X128900227Y-46675003D01*
X128900227Y-46674996D01*
X128896134Y-46617779D01*
X128895499Y-46600012D01*
X128895499Y-45766968D01*
X128895498Y-45766956D01*
X128884886Y-45647585D01*
X128884886Y-45647582D01*
X128828909Y-45451951D01*
X128734698Y-45271593D01*
X128606109Y-45113891D01*
X128448407Y-44985302D01*
X128448406Y-44985301D01*
X128419503Y-44970204D01*
X128343819Y-44909285D01*
X128297208Y-44824041D01*
X128286767Y-44727449D01*
X128314085Y-44634214D01*
X128375004Y-44558530D01*
X128460248Y-44511919D01*
X128534789Y-44500500D01*
X132570162Y-44500500D01*
X132665450Y-44519454D01*
X132746232Y-44573430D01*
X132800208Y-44654212D01*
X132819162Y-44749500D01*
X132800208Y-44844788D01*
X132746232Y-44925570D01*
X132665450Y-44979546D01*
X132657200Y-44982792D01*
X132556828Y-45020228D01*
X132418488Y-45071827D01*
X132418484Y-45071829D01*
X132179886Y-45202113D01*
X131962265Y-45365023D01*
X131962260Y-45365027D01*
X131770027Y-45557260D01*
X131770023Y-45557265D01*
X131607113Y-45774886D01*
X131476829Y-46013484D01*
X131476827Y-46013488D01*
X131409217Y-46194756D01*
X131381825Y-46268199D01*
X131349180Y-46418266D01*
X131324039Y-46533838D01*
X131309216Y-46741096D01*
X131304645Y-46805000D01*
X131324039Y-47076160D01*
X131381825Y-47341801D01*
X131426205Y-47460788D01*
X131471801Y-47583037D01*
X131476828Y-47596513D01*
X131607113Y-47835113D01*
X131770029Y-48052742D01*
X131962258Y-48244971D01*
X132117894Y-48361479D01*
X132182817Y-48433756D01*
X132215139Y-48525377D01*
X132209938Y-48622392D01*
X132168008Y-48710033D01*
X132163350Y-48716061D01*
X132059611Y-48846145D01*
X131928436Y-49073348D01*
X131928428Y-49073364D01*
X131832578Y-49317587D01*
X131774198Y-49573370D01*
X131774197Y-49573374D01*
X131754592Y-49835000D01*
X131774197Y-50096625D01*
X131774198Y-50096629D01*
X131832578Y-50352412D01*
X131928428Y-50596635D01*
X131928436Y-50596651D01*
X132059612Y-50823855D01*
X132223194Y-51028980D01*
X132223205Y-51028991D01*
X132415520Y-51207432D01*
X132632292Y-51355226D01*
X132632294Y-51355227D01*
X132632296Y-51355228D01*
X132669055Y-51372930D01*
X132868668Y-51469059D01*
X132868669Y-51469059D01*
X132868677Y-51469063D01*
X133119385Y-51546396D01*
X133378818Y-51585500D01*
X133378822Y-51585500D01*
X133641178Y-51585500D01*
X133641182Y-51585500D01*
X133900615Y-51546396D01*
X134151323Y-51469063D01*
X134387704Y-51355228D01*
X134604479Y-51207433D01*
X134796805Y-51028981D01*
X134960386Y-50823857D01*
X135091568Y-50596643D01*
X135187420Y-50352416D01*
X135245802Y-50096630D01*
X135265408Y-49835000D01*
X135245802Y-49573370D01*
X135187420Y-49317584D01*
X135124701Y-49157779D01*
X135091571Y-49073364D01*
X135091569Y-49073361D01*
X135091568Y-49073357D01*
X135091563Y-49073348D01*
X134960387Y-48846144D01*
X134796805Y-48641019D01*
X134796794Y-48641008D01*
X134604984Y-48463035D01*
X134548024Y-48384329D01*
X134525520Y-48289816D01*
X134540898Y-48193886D01*
X134591816Y-48111143D01*
X134598251Y-48104461D01*
X134649971Y-48052742D01*
X134812887Y-47835113D01*
X134943172Y-47596513D01*
X135038175Y-47341801D01*
X135095961Y-47076160D01*
X135115355Y-46805000D01*
X135095961Y-46533840D01*
X135038175Y-46268199D01*
X134943172Y-46013487D01*
X134812887Y-45774887D01*
X134649971Y-45557258D01*
X134457742Y-45365029D01*
X134240113Y-45202113D01*
X134240114Y-45202113D01*
X134001515Y-45071829D01*
X134001511Y-45071827D01*
X133915971Y-45039922D01*
X133762820Y-44982799D01*
X133680165Y-44931742D01*
X133623340Y-44852938D01*
X133600997Y-44758388D01*
X133616537Y-44662484D01*
X133667596Y-44579827D01*
X133746400Y-44523002D01*
X133840950Y-44500659D01*
X133849838Y-44500500D01*
X138020162Y-44500500D01*
X138115450Y-44519454D01*
X138196232Y-44573430D01*
X138250208Y-44654212D01*
X138269162Y-44749500D01*
X138250208Y-44844788D01*
X138196232Y-44925570D01*
X138115450Y-44979546D01*
X138107200Y-44982792D01*
X138006828Y-45020228D01*
X137868488Y-45071827D01*
X137868484Y-45071829D01*
X137629886Y-45202113D01*
X137412265Y-45365023D01*
X137412260Y-45365027D01*
X137220027Y-45557260D01*
X137220023Y-45557265D01*
X137057113Y-45774886D01*
X136926829Y-46013484D01*
X136926827Y-46013488D01*
X136859217Y-46194756D01*
X136831825Y-46268199D01*
X136799180Y-46418266D01*
X136774039Y-46533838D01*
X136759216Y-46741096D01*
X136754645Y-46805000D01*
X136774039Y-47076160D01*
X136831825Y-47341801D01*
X136876205Y-47460788D01*
X136921801Y-47583037D01*
X136926828Y-47596513D01*
X137057113Y-47835113D01*
X137220029Y-48052742D01*
X137271725Y-48104438D01*
X137325699Y-48185217D01*
X137344653Y-48280505D01*
X137325699Y-48375793D01*
X137271723Y-48456575D01*
X137265016Y-48463035D01*
X137073199Y-48641014D01*
X137073194Y-48641019D01*
X136909612Y-48846144D01*
X136778436Y-49073348D01*
X136778428Y-49073364D01*
X136682578Y-49317587D01*
X136624198Y-49573370D01*
X136624197Y-49573374D01*
X136604592Y-49835000D01*
X136624197Y-50096625D01*
X136624198Y-50096629D01*
X136682578Y-50352412D01*
X136778428Y-50596635D01*
X136778436Y-50596651D01*
X136909612Y-50823855D01*
X137073194Y-51028980D01*
X137073205Y-51028991D01*
X137265520Y-51207432D01*
X137482292Y-51355226D01*
X137482294Y-51355227D01*
X137482296Y-51355228D01*
X137519055Y-51372930D01*
X137718668Y-51469059D01*
X137718669Y-51469059D01*
X137718677Y-51469063D01*
X137969385Y-51546396D01*
X138228818Y-51585500D01*
X138228822Y-51585500D01*
X138491178Y-51585500D01*
X138491182Y-51585500D01*
X138750615Y-51546396D01*
X139001323Y-51469063D01*
X139237704Y-51355228D01*
X139454479Y-51207433D01*
X139646805Y-51028981D01*
X139810386Y-50823857D01*
X139941568Y-50596643D01*
X140037420Y-50352416D01*
X140095802Y-50096630D01*
X140115408Y-49835000D01*
X140095802Y-49573370D01*
X140037420Y-49317584D01*
X139974701Y-49157779D01*
X139941571Y-49073364D01*
X139941569Y-49073361D01*
X139941568Y-49073357D01*
X139941563Y-49073348D01*
X139810387Y-48846144D01*
X139706650Y-48716062D01*
X139662058Y-48629745D01*
X139653892Y-48532934D01*
X139683395Y-48440367D01*
X139746077Y-48366137D01*
X139752050Y-48361520D01*
X139907742Y-48244971D01*
X140099971Y-48052742D01*
X140262887Y-47835113D01*
X140393172Y-47596513D01*
X140488175Y-47341801D01*
X140545961Y-47076160D01*
X140565355Y-46805000D01*
X140545961Y-46533840D01*
X140488175Y-46268199D01*
X140393172Y-46013487D01*
X140262887Y-45774887D01*
X140099971Y-45557258D01*
X139907742Y-45365029D01*
X139690113Y-45202113D01*
X139690114Y-45202113D01*
X139451515Y-45071829D01*
X139451511Y-45071827D01*
X139365971Y-45039922D01*
X139212820Y-44982799D01*
X139130165Y-44931742D01*
X139073340Y-44852938D01*
X139050997Y-44758388D01*
X139066537Y-44662484D01*
X139117596Y-44579827D01*
X139196400Y-44523002D01*
X139290950Y-44500659D01*
X139299838Y-44500500D01*
X143335211Y-44500500D01*
X143430499Y-44519454D01*
X143511281Y-44573430D01*
X143565257Y-44654212D01*
X143584211Y-44749500D01*
X143565257Y-44844788D01*
X143511281Y-44925570D01*
X143450497Y-44970204D01*
X143421593Y-44985301D01*
X143421592Y-44985302D01*
X143263893Y-45113889D01*
X143263889Y-45113893D01*
X143135302Y-45271592D01*
X143135299Y-45271597D01*
X143041093Y-45451946D01*
X143041090Y-45451954D01*
X142985115Y-45647578D01*
X142985114Y-45647582D01*
X142974500Y-45766963D01*
X142974500Y-46600006D01*
X142973866Y-46617767D01*
X142969773Y-46674999D01*
X142973866Y-46732232D01*
X142974500Y-46749993D01*
X142974500Y-47583031D01*
X142974501Y-47583043D01*
X142985113Y-47702416D01*
X143034925Y-47876502D01*
X143042915Y-47973328D01*
X143034925Y-48013498D01*
X142985116Y-48187575D01*
X142985114Y-48187582D01*
X142974500Y-48306963D01*
X142974500Y-49140006D01*
X142973866Y-49157767D01*
X142969773Y-49214999D01*
X142973866Y-49272232D01*
X142974500Y-49289993D01*
X142974500Y-50123031D01*
X142974501Y-50123043D01*
X142985113Y-50242416D01*
X143035185Y-50417411D01*
X143043175Y-50514237D01*
X143035185Y-50554407D01*
X142985611Y-50727663D01*
X142985609Y-50727671D01*
X142975000Y-50846994D01*
X142975000Y-51254999D01*
X142975001Y-51255000D01*
X144720536Y-51255000D01*
X144628147Y-51279755D01*
X144511853Y-51346898D01*
X144416898Y-51441853D01*
X144349755Y-51558147D01*
X144315000Y-51687857D01*
X144315000Y-51822143D01*
X144349755Y-51951853D01*
X144416898Y-52068147D01*
X144511853Y-52163102D01*
X144628147Y-52230245D01*
X144720536Y-52255000D01*
X142975001Y-52255000D01*
X142975000Y-52255001D01*
X142975000Y-52663005D01*
X142985609Y-52782328D01*
X142985611Y-52782336D01*
X143035185Y-52955593D01*
X143043175Y-53052419D01*
X143035185Y-53092589D01*
X142985116Y-53267575D01*
X142985114Y-53267582D01*
X142974500Y-53386963D01*
X142974500Y-54220006D01*
X142973866Y-54237767D01*
X142969773Y-54294999D01*
X142973866Y-54352232D01*
X142974500Y-54369993D01*
X142974500Y-55203031D01*
X142974501Y-55203043D01*
X142985113Y-55322416D01*
X143034925Y-55496502D01*
X143042915Y-55593328D01*
X143034925Y-55633498D01*
X142985116Y-55807575D01*
X142985114Y-55807582D01*
X142974500Y-55926963D01*
X142974500Y-56760006D01*
X142973866Y-56777767D01*
X142969773Y-56834999D01*
X142973866Y-56892232D01*
X142974500Y-56909993D01*
X142974500Y-57743031D01*
X142974501Y-57743043D01*
X142985113Y-57862416D01*
X143034925Y-58036502D01*
X143042915Y-58133328D01*
X143034925Y-58173498D01*
X142985116Y-58347575D01*
X142985114Y-58347582D01*
X142974500Y-58466963D01*
X142974500Y-59300006D01*
X142973866Y-59317767D01*
X142969773Y-59374999D01*
X142973866Y-59432232D01*
X142974500Y-59449993D01*
X142974500Y-60283031D01*
X142974501Y-60283043D01*
X142985113Y-60402416D01*
X143034925Y-60576502D01*
X143042915Y-60673328D01*
X143034925Y-60713498D01*
X142985116Y-60887575D01*
X142985114Y-60887582D01*
X142974500Y-61006963D01*
X142974500Y-61840006D01*
X142973866Y-61857767D01*
X142969773Y-61914999D01*
X142973866Y-61972232D01*
X142974500Y-61989993D01*
X142974500Y-62823031D01*
X142974501Y-62823043D01*
X142985113Y-62942416D01*
X143034925Y-63116502D01*
X143042915Y-63213328D01*
X143034925Y-63253498D01*
X142985116Y-63427575D01*
X142985114Y-63427582D01*
X142974500Y-63546963D01*
X142974500Y-65363031D01*
X142974501Y-65363043D01*
X142985113Y-65482416D01*
X143034925Y-65656502D01*
X143042915Y-65753328D01*
X143034925Y-65793498D01*
X142985116Y-65967575D01*
X142985114Y-65967582D01*
X142974500Y-66086963D01*
X142974500Y-66920006D01*
X142973866Y-66937767D01*
X142969773Y-66994999D01*
X142973866Y-67052232D01*
X142974500Y-67069993D01*
X142974500Y-67903031D01*
X142974501Y-67903043D01*
X142985113Y-68022416D01*
X143034925Y-68196502D01*
X143042915Y-68293328D01*
X143034925Y-68333498D01*
X142985116Y-68507575D01*
X142985114Y-68507582D01*
X142974500Y-68626963D01*
X142974500Y-69460006D01*
X142973866Y-69477767D01*
X142969773Y-69534999D01*
X142973866Y-69592232D01*
X142974500Y-69609993D01*
X142974500Y-70443031D01*
X142974501Y-70443043D01*
X142985113Y-70562416D01*
X143034925Y-70736502D01*
X143042915Y-70833328D01*
X143034925Y-70873498D01*
X142985116Y-71047575D01*
X142985114Y-71047582D01*
X142974500Y-71166963D01*
X142974500Y-72000006D01*
X142973866Y-72017767D01*
X142969773Y-72074999D01*
X142973866Y-72132232D01*
X142974500Y-72149993D01*
X142974500Y-72983031D01*
X142974501Y-72983043D01*
X142985113Y-73102416D01*
X143034925Y-73276502D01*
X143042915Y-73373328D01*
X143034925Y-73413498D01*
X142985116Y-73587575D01*
X142985114Y-73587582D01*
X142974500Y-73706963D01*
X142974500Y-74540006D01*
X142973866Y-74557767D01*
X142969773Y-74614999D01*
X142973866Y-74672232D01*
X142974500Y-74689993D01*
X142974500Y-75523031D01*
X142974501Y-75523043D01*
X142985113Y-75642416D01*
X143035185Y-75817411D01*
X143043175Y-75914237D01*
X143035185Y-75954407D01*
X142985611Y-76127663D01*
X142985609Y-76127671D01*
X142975000Y-76246994D01*
X142975000Y-76654999D01*
X142975001Y-76655000D01*
X144720536Y-76655000D01*
X144628147Y-76679755D01*
X144511853Y-76746898D01*
X144416898Y-76841853D01*
X144349755Y-76958147D01*
X144315000Y-77087857D01*
X144315000Y-77222143D01*
X144349755Y-77351853D01*
X144416898Y-77468147D01*
X144511853Y-77563102D01*
X144628147Y-77630245D01*
X144720536Y-77655000D01*
X142975001Y-77655000D01*
X142975000Y-77655001D01*
X142975000Y-78063005D01*
X142985609Y-78182328D01*
X142985611Y-78182336D01*
X143035185Y-78355593D01*
X143043175Y-78452419D01*
X143035185Y-78492589D01*
X142985116Y-78667575D01*
X142985114Y-78667582D01*
X142974500Y-78786963D01*
X142974500Y-79620006D01*
X142973866Y-79637767D01*
X142969773Y-79694999D01*
X142973866Y-79752232D01*
X142974500Y-79769993D01*
X142974500Y-80603031D01*
X142974501Y-80603043D01*
X142985113Y-80722416D01*
X143034925Y-80896502D01*
X143042915Y-80993328D01*
X143034925Y-81033498D01*
X142985116Y-81207575D01*
X142985114Y-81207582D01*
X142974500Y-81326963D01*
X142974500Y-82160006D01*
X142973866Y-82177767D01*
X142969773Y-82234999D01*
X142973866Y-82292232D01*
X142974500Y-82309993D01*
X142974500Y-83143031D01*
X142974501Y-83143043D01*
X142985113Y-83262416D01*
X143034925Y-83436502D01*
X143042915Y-83533328D01*
X143034925Y-83573498D01*
X142985116Y-83747575D01*
X142985114Y-83747582D01*
X142974500Y-83866963D01*
X142974500Y-84700006D01*
X142973866Y-84717767D01*
X142969773Y-84774999D01*
X142973866Y-84832232D01*
X142974500Y-84849993D01*
X142974500Y-85683031D01*
X142974501Y-85683043D01*
X142985113Y-85802416D01*
X143034925Y-85976502D01*
X143042915Y-86073328D01*
X143034925Y-86113498D01*
X142985116Y-86287575D01*
X142985114Y-86287582D01*
X142974500Y-86406963D01*
X142974500Y-87240006D01*
X142973866Y-87257767D01*
X142969773Y-87314999D01*
X142973866Y-87372232D01*
X142974500Y-87389993D01*
X142974500Y-88223031D01*
X142974501Y-88223043D01*
X142985113Y-88342416D01*
X143035185Y-88517411D01*
X143043175Y-88614237D01*
X143035185Y-88654407D01*
X142985611Y-88827663D01*
X142985609Y-88827671D01*
X142975000Y-88946994D01*
X142975000Y-89354999D01*
X142975001Y-89355000D01*
X144720536Y-89355000D01*
X144628147Y-89379755D01*
X144511853Y-89446898D01*
X144416898Y-89541853D01*
X144349755Y-89658147D01*
X144315000Y-89787857D01*
X144315000Y-89922143D01*
X144349755Y-90051853D01*
X144416898Y-90168147D01*
X144511853Y-90263102D01*
X144628147Y-90330245D01*
X144720536Y-90355000D01*
X142975001Y-90355000D01*
X142975000Y-90355001D01*
X142975000Y-90763005D01*
X142985609Y-90882328D01*
X142985611Y-90882336D01*
X143035185Y-91055593D01*
X143043175Y-91152419D01*
X143035185Y-91192589D01*
X142985116Y-91367575D01*
X142985114Y-91367582D01*
X142974500Y-91486963D01*
X142974500Y-92320006D01*
X142973866Y-92337767D01*
X142969773Y-92394999D01*
X142973866Y-92452232D01*
X142974500Y-92469993D01*
X142974500Y-93303031D01*
X142974501Y-93303043D01*
X142985113Y-93422416D01*
X143034925Y-93596502D01*
X143042915Y-93693328D01*
X143034925Y-93733498D01*
X142985116Y-93907575D01*
X142985114Y-93907582D01*
X142974500Y-94026963D01*
X142974500Y-94860006D01*
X142973866Y-94877767D01*
X142969773Y-94934999D01*
X142973866Y-94992232D01*
X142974500Y-95009993D01*
X142974500Y-95843031D01*
X142974501Y-95843043D01*
X142985113Y-95962414D01*
X142985113Y-95962417D01*
X142985114Y-95962418D01*
X143041091Y-96158049D01*
X143135302Y-96338407D01*
X143263891Y-96496109D01*
X143421593Y-96624698D01*
X143601951Y-96718909D01*
X143797582Y-96774886D01*
X143916963Y-96785500D01*
X144750015Y-96785499D01*
X144767783Y-96786134D01*
X144824997Y-96790227D01*
X144825000Y-96790227D01*
X144825003Y-96790227D01*
X144882217Y-96786134D01*
X144899985Y-96785499D01*
X147533032Y-96785499D01*
X147533036Y-96785499D01*
X147652418Y-96774886D01*
X147848049Y-96718909D01*
X148028407Y-96624698D01*
X148186109Y-96496109D01*
X148314698Y-96338407D01*
X148408909Y-96158049D01*
X148464886Y-95962418D01*
X148475500Y-95843037D01*
X148475499Y-94026964D01*
X148464886Y-93907582D01*
X148415073Y-93733495D01*
X148407084Y-93636673D01*
X148415074Y-93596502D01*
X148464886Y-93422418D01*
X148475500Y-93303037D01*
X148475499Y-91486964D01*
X148464886Y-91367582D01*
X148414813Y-91192587D01*
X148406824Y-91095764D01*
X148414814Y-91055592D01*
X148464389Y-90882332D01*
X148464390Y-90882328D01*
X148474999Y-90763005D01*
X148475000Y-90763002D01*
X148475000Y-90355001D01*
X148474999Y-90355000D01*
X144929464Y-90355000D01*
X145021853Y-90330245D01*
X145138147Y-90263102D01*
X145233102Y-90168147D01*
X145300245Y-90051853D01*
X145335000Y-89922143D01*
X145335000Y-89787857D01*
X145300245Y-89658147D01*
X145233102Y-89541853D01*
X145138147Y-89446898D01*
X145021853Y-89379755D01*
X144929464Y-89355000D01*
X148474999Y-89355000D01*
X148475000Y-89354999D01*
X148475000Y-89139500D01*
X148493954Y-89044212D01*
X148547930Y-88963430D01*
X148628712Y-88909454D01*
X148724000Y-88890500D01*
X158451000Y-88890500D01*
X158546288Y-88909454D01*
X158627070Y-88963430D01*
X158681046Y-89044212D01*
X158700000Y-89139500D01*
X158700000Y-89218005D01*
X158710609Y-89337328D01*
X158710610Y-89337333D01*
X158766557Y-89532859D01*
X158766560Y-89532867D01*
X158860719Y-89713126D01*
X158860723Y-89713132D01*
X158989245Y-89870750D01*
X158989249Y-89870754D01*
X159146867Y-89999276D01*
X159146873Y-89999280D01*
X159327132Y-90093439D01*
X159327140Y-90093442D01*
X159522666Y-90149389D01*
X159522671Y-90149390D01*
X159641994Y-90159999D01*
X159641998Y-90160000D01*
X159699999Y-90160000D01*
X159700000Y-90159999D01*
X159700000Y-89139500D01*
X159718954Y-89044212D01*
X159772930Y-88963430D01*
X159853712Y-88909454D01*
X159949000Y-88890500D01*
X159970882Y-88890500D01*
X160000446Y-88920064D01*
X160074555Y-88962851D01*
X160157213Y-88985000D01*
X160242787Y-88985000D01*
X160325445Y-88962851D01*
X160399554Y-88920064D01*
X160442411Y-88877206D01*
X160507123Y-88879213D01*
X160595687Y-88919157D01*
X160662224Y-88989952D01*
X160696604Y-89080821D01*
X160700000Y-89121806D01*
X160700000Y-90159999D01*
X160700001Y-90160000D01*
X160758002Y-90160000D01*
X160758005Y-90159999D01*
X160877328Y-90149390D01*
X160877333Y-90149389D01*
X161072859Y-90093442D01*
X161072867Y-90093439D01*
X161253126Y-89999280D01*
X161253132Y-89999276D01*
X161410750Y-89870754D01*
X161410754Y-89870750D01*
X161539276Y-89713132D01*
X161539280Y-89713126D01*
X161633439Y-89532867D01*
X161633442Y-89532859D01*
X161689389Y-89337333D01*
X161689390Y-89337328D01*
X161699999Y-89218005D01*
X161700000Y-89218002D01*
X161700000Y-89160001D01*
X161699999Y-89160000D01*
X161068474Y-89160000D01*
X160973186Y-89141046D01*
X160892404Y-89087070D01*
X160838428Y-89006288D01*
X160819474Y-88911000D01*
X160838428Y-88815712D01*
X160892404Y-88734930D01*
X160955431Y-88689138D01*
X160986433Y-88673343D01*
X160988212Y-88672050D01*
X161016069Y-88654499D01*
X161023509Y-88650474D01*
X161098840Y-88591840D01*
X161105393Y-88586911D01*
X161177510Y-88534517D01*
X161184203Y-88527823D01*
X161207336Y-88507394D01*
X161219744Y-88497738D01*
X161279508Y-88432815D01*
X161286564Y-88425461D01*
X161344517Y-88367510D01*
X161354346Y-88353979D01*
X161372598Y-88331692D01*
X161388164Y-88314785D01*
X161415585Y-88272813D01*
X161483569Y-88203407D01*
X161572939Y-88165300D01*
X161624041Y-88160000D01*
X161699999Y-88160000D01*
X161700000Y-88159999D01*
X161700000Y-88101997D01*
X161699999Y-88101994D01*
X161689390Y-87982671D01*
X161689389Y-87982663D01*
X161661499Y-87885191D01*
X161653509Y-87788365D01*
X161661639Y-87750973D01*
X161661268Y-87750884D01*
X161663548Y-87741382D01*
X161663553Y-87741368D01*
X161669573Y-87703352D01*
X161674121Y-87681201D01*
X161685108Y-87637821D01*
X161689998Y-87578789D01*
X161692214Y-87560403D01*
X161700499Y-87508100D01*
X161700500Y-87508091D01*
X161700500Y-87462370D01*
X161701350Y-87441809D01*
X161701610Y-87438660D01*
X161705643Y-87390000D01*
X161701350Y-87338190D01*
X161700500Y-87317629D01*
X161700500Y-87271908D01*
X161700499Y-87271897D01*
X161692214Y-87219595D01*
X161689997Y-87201196D01*
X161685108Y-87142179D01*
X161674127Y-87098819D01*
X161669574Y-87076654D01*
X161663553Y-87038632D01*
X161644943Y-86981359D01*
X161640380Y-86965552D01*
X161635663Y-86946928D01*
X161624063Y-86901119D01*
X161609002Y-86866786D01*
X161600219Y-86843715D01*
X161596392Y-86831935D01*
X161584976Y-86735456D01*
X161596390Y-86678069D01*
X161600226Y-86666263D01*
X161609000Y-86643217D01*
X161624063Y-86608881D01*
X161640379Y-86544447D01*
X161644944Y-86528639D01*
X161663553Y-86471368D01*
X161669573Y-86433352D01*
X161674121Y-86411201D01*
X161685108Y-86367821D01*
X161689998Y-86308789D01*
X161692214Y-86290403D01*
X161700499Y-86238100D01*
X161700500Y-86238091D01*
X161700500Y-86192370D01*
X161701350Y-86171809D01*
X161701610Y-86168660D01*
X161705643Y-86120000D01*
X161701350Y-86068190D01*
X161700500Y-86047629D01*
X161700500Y-86001908D01*
X161700499Y-86001897D01*
X161692214Y-85949595D01*
X161689997Y-85931196D01*
X161685108Y-85872179D01*
X161674127Y-85828819D01*
X161669574Y-85806654D01*
X161663553Y-85768632D01*
X161644943Y-85711359D01*
X161640358Y-85695467D01*
X161640093Y-85694419D01*
X161635109Y-85597391D01*
X161659634Y-85520335D01*
X161693241Y-85454379D01*
X161771090Y-85214785D01*
X161810500Y-84965962D01*
X161810500Y-79130411D01*
X161829454Y-79035123D01*
X161837641Y-79017364D01*
X161838871Y-79014949D01*
X161848736Y-78995589D01*
X161922937Y-78767222D01*
X161960500Y-78530059D01*
X161960500Y-78289941D01*
X161924557Y-78063005D01*
X161922938Y-78052783D01*
X161922937Y-78052781D01*
X161922937Y-78052778D01*
X161857681Y-77851942D01*
X161846263Y-77755464D01*
X161857680Y-77698059D01*
X161922937Y-77497222D01*
X161960500Y-77260059D01*
X161960500Y-77019941D01*
X161932294Y-76841853D01*
X161921407Y-76773114D01*
X161922651Y-76772916D01*
X161919239Y-76686213D01*
X161925779Y-76656663D01*
X161949886Y-76572418D01*
X161960500Y-76453037D01*
X161960499Y-75286964D01*
X161949886Y-75167582D01*
X161893909Y-74971951D01*
X161799698Y-74791593D01*
X161671109Y-74633891D01*
X161513407Y-74505302D01*
X161513402Y-74505299D01*
X161333053Y-74411093D01*
X161333052Y-74411092D01*
X161333049Y-74411091D01*
X161137418Y-74355114D01*
X161137409Y-74355113D01*
X161137408Y-74355113D01*
X161031180Y-74345667D01*
X160937946Y-74318348D01*
X160877165Y-74273716D01*
X157673429Y-71069980D01*
X157619453Y-70989198D01*
X157600499Y-70893910D01*
X157600499Y-70616968D01*
X157600498Y-70616956D01*
X157595649Y-70562416D01*
X157589886Y-70497582D01*
X157533909Y-70301951D01*
X157439698Y-70121593D01*
X157439694Y-70121588D01*
X157432748Y-70111048D01*
X157435148Y-70109465D01*
X157399560Y-70042382D01*
X157390339Y-69945665D01*
X157418832Y-69852782D01*
X157419523Y-69851509D01*
X157433169Y-69826518D01*
X157433172Y-69826513D01*
X157528175Y-69571801D01*
X157585961Y-69306160D01*
X157605355Y-69035000D01*
X157585961Y-68763840D01*
X157528175Y-68498199D01*
X157433172Y-68243487D01*
X157330958Y-68056295D01*
X157301927Y-67963578D01*
X157300500Y-67936962D01*
X157300500Y-66673660D01*
X157317714Y-66582687D01*
X157329506Y-66552642D01*
X157329510Y-66552629D01*
X157341003Y-66502270D01*
X157386222Y-66304157D01*
X157405268Y-66050000D01*
X157386222Y-65795843D01*
X157329508Y-65547363D01*
X157236393Y-65310112D01*
X157108959Y-65089388D01*
X157075609Y-65047568D01*
X156950054Y-64890127D01*
X156763214Y-64716765D01*
X156552637Y-64573196D01*
X156552632Y-64573194D01*
X156323010Y-64462613D01*
X156323005Y-64462611D01*
X156079464Y-64387488D01*
X156079461Y-64387487D01*
X155971448Y-64371206D01*
X155827435Y-64349500D01*
X155572565Y-64349500D01*
X155446553Y-64368493D01*
X155320538Y-64387487D01*
X155320535Y-64387488D01*
X155076994Y-64462611D01*
X155076989Y-64462613D01*
X154847367Y-64573194D01*
X154847362Y-64573196D01*
X154636785Y-64716765D01*
X154449945Y-64890127D01*
X154291045Y-65089382D01*
X154291041Y-65089388D01*
X154163609Y-65310107D01*
X154163600Y-65310127D01*
X154070495Y-65547354D01*
X154070489Y-65547370D01*
X154013777Y-65795845D01*
X153994732Y-66050000D01*
X154013777Y-66304154D01*
X154070489Y-66552629D01*
X154070493Y-66552642D01*
X154082286Y-66582687D01*
X154099500Y-66673660D01*
X154099500Y-67936962D01*
X154080546Y-68032250D01*
X154069042Y-68056295D01*
X153966829Y-68243484D01*
X153966827Y-68243488D01*
X153933255Y-68333499D01*
X153871825Y-68498199D01*
X153814039Y-68763840D01*
X153794645Y-69035000D01*
X153814039Y-69306160D01*
X153871825Y-69571801D01*
X153882752Y-69601096D01*
X153966827Y-69826511D01*
X153966830Y-69826517D01*
X153980479Y-69851514D01*
X154009510Y-69944230D01*
X154000849Y-70040998D01*
X153964983Y-70109560D01*
X153967249Y-70111053D01*
X153960299Y-70121596D01*
X153866093Y-70301946D01*
X153866090Y-70301954D01*
X153810115Y-70497578D01*
X153810114Y-70497582D01*
X153799500Y-70616963D01*
X153799500Y-72533031D01*
X153799501Y-72533043D01*
X153810113Y-72652414D01*
X153866090Y-72848045D01*
X153866093Y-72848053D01*
X153936602Y-72983037D01*
X153960302Y-73028407D01*
X154088891Y-73186109D01*
X154246593Y-73314698D01*
X154426951Y-73408909D01*
X154622582Y-73464886D01*
X154741963Y-73475500D01*
X155448910Y-73475499D01*
X155544198Y-73494453D01*
X155624979Y-73548429D01*
X155624980Y-73548429D01*
X157210981Y-75134430D01*
X157264957Y-75215212D01*
X157283911Y-75310500D01*
X157264957Y-75405788D01*
X157210981Y-75486570D01*
X157130199Y-75540546D01*
X157034911Y-75559500D01*
X154068031Y-75559500D01*
X153994637Y-75548438D01*
X153829458Y-75497487D01*
X153577435Y-75459500D01*
X153322565Y-75459500D01*
X153196553Y-75478493D01*
X153070538Y-75497487D01*
X153070535Y-75497488D01*
X152826994Y-75572611D01*
X152826989Y-75572613D01*
X152597367Y-75683194D01*
X152597362Y-75683196D01*
X152386785Y-75826765D01*
X152199945Y-76000127D01*
X152041045Y-76199382D01*
X152041041Y-76199388D01*
X151913609Y-76420107D01*
X151913600Y-76420127D01*
X151820495Y-76657354D01*
X151820489Y-76657370D01*
X151763777Y-76905845D01*
X151744732Y-77160000D01*
X151763777Y-77414154D01*
X151820489Y-77662629D01*
X151820495Y-77662645D01*
X151913600Y-77899872D01*
X151913605Y-77899884D01*
X151913607Y-77899888D01*
X152041041Y-78120612D01*
X152041045Y-78120617D01*
X152199945Y-78319872D01*
X152386785Y-78493234D01*
X152597362Y-78636803D01*
X152597364Y-78636804D01*
X152597366Y-78636805D01*
X152727064Y-78699264D01*
X152826989Y-78747386D01*
X152826993Y-78747387D01*
X152826996Y-78747389D01*
X152955269Y-78786956D01*
X153070535Y-78822511D01*
X153070538Y-78822512D01*
X153070539Y-78822512D01*
X153070542Y-78822513D01*
X153322565Y-78860500D01*
X153322569Y-78860500D01*
X153577431Y-78860500D01*
X153577435Y-78860500D01*
X153829458Y-78822513D01*
X153994637Y-78771562D01*
X154068031Y-78760500D01*
X158313970Y-78760500D01*
X158409258Y-78779454D01*
X158490040Y-78833430D01*
X158544016Y-78914212D01*
X158550783Y-78932556D01*
X158571260Y-78995579D01*
X158571266Y-78995593D01*
X158582359Y-79017364D01*
X158608732Y-79110871D01*
X158609500Y-79130411D01*
X158609500Y-84370500D01*
X158590546Y-84465788D01*
X158536570Y-84546570D01*
X158455788Y-84600546D01*
X158360500Y-84619500D01*
X156844667Y-84619500D01*
X156749379Y-84600546D01*
X156668598Y-84546570D01*
X155752511Y-83630484D01*
X155752510Y-83630483D01*
X155561434Y-83491657D01*
X155350992Y-83384432D01*
X155350989Y-83384431D01*
X155350984Y-83384429D01*
X155138239Y-83315304D01*
X155053471Y-83267832D01*
X154993323Y-83191535D01*
X154966952Y-83098027D01*
X154978371Y-83001546D01*
X154983397Y-82987520D01*
X154986391Y-82979891D01*
X154986393Y-82979888D01*
X155079508Y-82742637D01*
X155136222Y-82494157D01*
X155155268Y-82240000D01*
X155136222Y-81985843D01*
X155079508Y-81737363D01*
X154986393Y-81500112D01*
X154858959Y-81279388D01*
X154801698Y-81207585D01*
X154700054Y-81080127D01*
X154513214Y-80906765D01*
X154302637Y-80763196D01*
X154302632Y-80763194D01*
X154073010Y-80652613D01*
X154073005Y-80652611D01*
X153829464Y-80577488D01*
X153829461Y-80577487D01*
X153721448Y-80561206D01*
X153577435Y-80539500D01*
X153322565Y-80539500D01*
X153120946Y-80569889D01*
X153070541Y-80577487D01*
X152905363Y-80628438D01*
X152831969Y-80639500D01*
X148724500Y-80639500D01*
X148629212Y-80620546D01*
X148548430Y-80566570D01*
X148494454Y-80485788D01*
X148475500Y-80390500D01*
X148475499Y-78786968D01*
X148475498Y-78786956D01*
X148474129Y-78771562D01*
X148464886Y-78667582D01*
X148414813Y-78492587D01*
X148406824Y-78395764D01*
X148414814Y-78355592D01*
X148464389Y-78182332D01*
X148464390Y-78182328D01*
X148474999Y-78063005D01*
X148475000Y-78063002D01*
X148475000Y-77655001D01*
X148474999Y-77655000D01*
X144929464Y-77655000D01*
X145021853Y-77630245D01*
X145138147Y-77563102D01*
X145233102Y-77468147D01*
X145300245Y-77351853D01*
X145335000Y-77222143D01*
X145335000Y-77087857D01*
X145300245Y-76958147D01*
X145233102Y-76841853D01*
X145138147Y-76746898D01*
X145021853Y-76679755D01*
X144929464Y-76655000D01*
X148474999Y-76655000D01*
X148475000Y-76654999D01*
X148475000Y-76246997D01*
X148474999Y-76246994D01*
X148464390Y-76127671D01*
X148464389Y-76127667D01*
X148414814Y-75954408D01*
X148406824Y-75857582D01*
X148414814Y-75817411D01*
X148464886Y-75642418D01*
X148475500Y-75523037D01*
X148475499Y-73706964D01*
X148464886Y-73587582D01*
X148415073Y-73413495D01*
X148407084Y-73316673D01*
X148415074Y-73276502D01*
X148464886Y-73102418D01*
X148475500Y-72983037D01*
X148475499Y-71166964D01*
X148464886Y-71047582D01*
X148415073Y-70873495D01*
X148407084Y-70776673D01*
X148415074Y-70736502D01*
X148464886Y-70562418D01*
X148475500Y-70443037D01*
X148475499Y-68626964D01*
X148464886Y-68507582D01*
X148415073Y-68333495D01*
X148407084Y-68236673D01*
X148415074Y-68196502D01*
X148464886Y-68022418D01*
X148475500Y-67903037D01*
X148475499Y-66086964D01*
X148464886Y-65967582D01*
X148415073Y-65793495D01*
X148407084Y-65696673D01*
X148415074Y-65656502D01*
X148464886Y-65482418D01*
X148475500Y-65363037D01*
X148475499Y-63546964D01*
X148464886Y-63427582D01*
X148415073Y-63253495D01*
X148407084Y-63156673D01*
X148415074Y-63116502D01*
X148464886Y-62942418D01*
X148475500Y-62823037D01*
X148475499Y-61006964D01*
X148464886Y-60887582D01*
X148415073Y-60713495D01*
X148407084Y-60616673D01*
X148415074Y-60576502D01*
X148464886Y-60402418D01*
X148475500Y-60283037D01*
X148475499Y-58466964D01*
X148464886Y-58347582D01*
X148415073Y-58173495D01*
X148407084Y-58076673D01*
X148415074Y-58036502D01*
X148464886Y-57862418D01*
X148475500Y-57743037D01*
X148475499Y-55926964D01*
X148464886Y-55807582D01*
X148415073Y-55633495D01*
X148407084Y-55536673D01*
X148415074Y-55496502D01*
X148464886Y-55322418D01*
X148475500Y-55203037D01*
X148475499Y-53386964D01*
X148464886Y-53267582D01*
X148414813Y-53092587D01*
X148406824Y-52995764D01*
X148414814Y-52955592D01*
X148464389Y-52782332D01*
X148464390Y-52782328D01*
X148474999Y-52663005D01*
X148475000Y-52663002D01*
X148475000Y-52255001D01*
X148474999Y-52255000D01*
X144929464Y-52255000D01*
X145021853Y-52230245D01*
X145138147Y-52163102D01*
X145233102Y-52068147D01*
X145300245Y-51951853D01*
X145335000Y-51822143D01*
X145335000Y-51687857D01*
X145300245Y-51558147D01*
X145233102Y-51441853D01*
X145138147Y-51346898D01*
X145021853Y-51279755D01*
X144929464Y-51255000D01*
X148474999Y-51255000D01*
X148475000Y-51254999D01*
X148475000Y-51064500D01*
X148493954Y-50969212D01*
X148547930Y-50888430D01*
X148628712Y-50834454D01*
X148724000Y-50815500D01*
X153102759Y-50815500D01*
X153198047Y-50834454D01*
X153278829Y-50888430D01*
X153332805Y-50969212D01*
X153351759Y-51064500D01*
X153332805Y-51159788D01*
X153330787Y-51164522D01*
X153271361Y-51300000D01*
X154110500Y-51300000D01*
X154205788Y-51318954D01*
X154286570Y-51372930D01*
X154340546Y-51453712D01*
X154359500Y-51549000D01*
X154359500Y-52051000D01*
X154340546Y-52146288D01*
X154286570Y-52227070D01*
X154205788Y-52281046D01*
X154110500Y-52300000D01*
X153271361Y-52300000D01*
X153366268Y-52516368D01*
X153366268Y-52516369D01*
X153502230Y-52724475D01*
X153502232Y-52724477D01*
X153670588Y-52907360D01*
X153670600Y-52907370D01*
X153866762Y-53060050D01*
X153866769Y-53060055D01*
X154085393Y-53178368D01*
X154191349Y-53214743D01*
X154275320Y-53263610D01*
X154334199Y-53340891D01*
X154359021Y-53434822D01*
X154359500Y-53450252D01*
X154359500Y-54335695D01*
X154340546Y-54430983D01*
X154332361Y-54448738D01*
X154216759Y-54675620D01*
X154216757Y-54675625D01*
X154138909Y-54915217D01*
X154099500Y-55164028D01*
X154099500Y-60346339D01*
X154082288Y-60437308D01*
X154070490Y-60467367D01*
X154013777Y-60715845D01*
X153994732Y-60970000D01*
X154013777Y-61224154D01*
X154070489Y-61472629D01*
X154070495Y-61472645D01*
X154163600Y-61709872D01*
X154163605Y-61709884D01*
X154163607Y-61709888D01*
X154291041Y-61930612D01*
X154291045Y-61930617D01*
X154449945Y-62129872D01*
X154636785Y-62303234D01*
X154847362Y-62446803D01*
X154847364Y-62446804D01*
X154847366Y-62446805D01*
X154977064Y-62509264D01*
X155076989Y-62557386D01*
X155076993Y-62557387D01*
X155076996Y-62557389D01*
X155229726Y-62604500D01*
X155320535Y-62632511D01*
X155320538Y-62632512D01*
X155320539Y-62632512D01*
X155320542Y-62632513D01*
X155572565Y-62670500D01*
X155572569Y-62670500D01*
X155827431Y-62670500D01*
X155827435Y-62670500D01*
X156079458Y-62632513D01*
X156323004Y-62557389D01*
X156552634Y-62446805D01*
X156763217Y-62303232D01*
X156950050Y-62129877D01*
X157108959Y-61930612D01*
X157236393Y-61709888D01*
X157329508Y-61472637D01*
X157386222Y-61224157D01*
X157405268Y-60970000D01*
X157386222Y-60715843D01*
X157329508Y-60467363D01*
X157317711Y-60437306D01*
X157300500Y-60346339D01*
X157300500Y-55984302D01*
X157319454Y-55889014D01*
X157327647Y-55871244D01*
X157328868Y-55868847D01*
X157328870Y-55868845D01*
X157335360Y-55856109D01*
X157443242Y-55644378D01*
X157521091Y-55404784D01*
X157560500Y-55155962D01*
X157560500Y-54904038D01*
X157560500Y-51674038D01*
X157560500Y-49404038D01*
X157560499Y-49404035D01*
X157560499Y-49404028D01*
X157534951Y-49242729D01*
X157521090Y-49155215D01*
X157443241Y-48915621D01*
X157328870Y-48691155D01*
X157180793Y-48487344D01*
X157101336Y-48407887D01*
X157002656Y-48309206D01*
X157002656Y-48309207D01*
X156687655Y-47994206D01*
X156684555Y-47991954D01*
X156684553Y-47991952D01*
X156483851Y-47846134D01*
X156483849Y-47846133D01*
X156483845Y-47846130D01*
X156259379Y-47731759D01*
X156259376Y-47731758D01*
X156259374Y-47731757D01*
X156019782Y-47653909D01*
X155770971Y-47614500D01*
X155770962Y-47614500D01*
X148724500Y-47614500D01*
X148629212Y-47595546D01*
X148548430Y-47541570D01*
X148494454Y-47460788D01*
X148475500Y-47365500D01*
X148475499Y-45766968D01*
X148475498Y-45766956D01*
X148464886Y-45647585D01*
X148464886Y-45647582D01*
X148408909Y-45451951D01*
X148314698Y-45271593D01*
X148186109Y-45113891D01*
X148028407Y-44985302D01*
X148028406Y-44985301D01*
X147999503Y-44970204D01*
X147923819Y-44909285D01*
X147877208Y-44824041D01*
X147866767Y-44727449D01*
X147894085Y-44634214D01*
X147955004Y-44558530D01*
X148040248Y-44511919D01*
X148114789Y-44500500D01*
X165750500Y-44500500D01*
X165845788Y-44519454D01*
X165926570Y-44573430D01*
X165980546Y-44654212D01*
X165999500Y-44749500D01*
X165999500Y-97250500D01*
X165980546Y-97345788D01*
X165926570Y-97426570D01*
X165845788Y-97480546D01*
X165750500Y-97499500D01*
X140574500Y-97499500D01*
X140479212Y-97480546D01*
X140398430Y-97426570D01*
X140344454Y-97345788D01*
X140325500Y-97250500D01*
X140325499Y-94779988D01*
X140326134Y-94762221D01*
X140330227Y-94705003D01*
X140330227Y-94704995D01*
X140326134Y-94647776D01*
X140325499Y-94630010D01*
X140325499Y-93796968D01*
X140325498Y-93796956D01*
X140314886Y-93677585D01*
X140314886Y-93677582D01*
X140258909Y-93481951D01*
X140164698Y-93301593D01*
X140036109Y-93143891D01*
X139878407Y-93015302D01*
X139878402Y-93015299D01*
X139698053Y-92921093D01*
X139698052Y-92921092D01*
X139698049Y-92921091D01*
X139502418Y-92865114D01*
X139383037Y-92854500D01*
X139383036Y-92854500D01*
X138549993Y-92854500D01*
X138532232Y-92853866D01*
X138475000Y-92849773D01*
X138417766Y-92853866D01*
X138400005Y-92854500D01*
X137566968Y-92854500D01*
X137566956Y-92854501D01*
X137447583Y-92865113D01*
X137273498Y-92914925D01*
X137176672Y-92922915D01*
X137136502Y-92914925D01*
X137016082Y-92880469D01*
X136962418Y-92865114D01*
X136843037Y-92854500D01*
X136843035Y-92854500D01*
X135026968Y-92854500D01*
X135026956Y-92854501D01*
X134907583Y-92865113D01*
X134733498Y-92914925D01*
X134636672Y-92922915D01*
X134596502Y-92914925D01*
X134476082Y-92880469D01*
X134422418Y-92865114D01*
X134303037Y-92854500D01*
X134303036Y-92854500D01*
X133469993Y-92854500D01*
X133452232Y-92853866D01*
X133395000Y-92849773D01*
X133337766Y-92853866D01*
X133320005Y-92854500D01*
X132486968Y-92854500D01*
X132486956Y-92854501D01*
X132367585Y-92865113D01*
X132171954Y-92921090D01*
X132171946Y-92921093D01*
X131991597Y-93015299D01*
X131991592Y-93015302D01*
X131833893Y-93143889D01*
X131833889Y-93143893D01*
X131705302Y-93301592D01*
X131705299Y-93301597D01*
X131611093Y-93481946D01*
X131611090Y-93481954D01*
X131555115Y-93677578D01*
X131555114Y-93677582D01*
X131544500Y-93796963D01*
X131544500Y-94630008D01*
X131543866Y-94647770D01*
X131539773Y-94704999D01*
X131543866Y-94762229D01*
X131544500Y-94779991D01*
X131544501Y-97250500D01*
X131525547Y-97345788D01*
X131471571Y-97426570D01*
X131390789Y-97480546D01*
X131295501Y-97499500D01*
X121749500Y-97499500D01*
X121654212Y-97480546D01*
X121573430Y-97426570D01*
X121519454Y-97345788D01*
X121500500Y-97250500D01*
X121500500Y-44749500D01*
X121519454Y-44654212D01*
X121573430Y-44573430D01*
X121654212Y-44519454D01*
X121749500Y-44500500D01*
X123755211Y-44500500D01*
X123850499Y-44519454D01*
G37*
%TD.AperFunction*%
%TD*%
M02*
